<svg width="387" height="387" viewBox="0 0 387 387" fill="none" xmlns="http://www.w3.org/2000/svg">
<rect width="387" height="387" rx="121" fill="black"/>
<path d="M274.024 76C145.224 110 115.024 246.833 116.024 311C140.024 163 198.024 118.333 224.024 114.5C151.224 156.1 134.69 243.833 135.524 282.5C136.024 277.833 145.124 264.3 177.524 247.5C209.924 230.7 222.024 210.167 224.024 202C198.424 213.2 187.024 213 184.524 211.5C248.024 192.5 264.524 136 261.024 141.5C258.224 145.9 238.19 148 228.524 148.5C274.024 135 277.19 99.3333 274.024 76Z" fill="white"/>
</svg>
