<svg width="387" height="387" viewBox="0 0 387 387" fill="none" xmlns="http://www.w3.org/2000/svg">
<rect width="387" height="387" rx="121" fill="#00BF87"/>
<path d="M263.217 90C149.746 119.949 123.14 240.479 124.021 297C145.165 166.634 196.262 127.289 219.167 123.913C155.032 160.556 140.466 237.836 141.2 271.896C141.641 267.785 149.658 255.864 178.202 241.066C206.746 226.268 217.405 208.181 219.167 200.987C196.614 210.853 186.571 210.677 184.369 209.355C240.311 192.619 254.847 142.851 251.764 147.696C249.297 151.571 231.648 153.421 223.132 153.862C263.217 141.97 266.007 110.553 263.217 90Z" fill="white"/>
</svg>
