<svg width="387" height="387" viewBox="0 0 387 387" fill="none" xmlns="http://www.w3.org/2000/svg">
<rect width="387" height="387" rx="121" fill="#00BF87"/>
<path d="M286.943 54C133.757 94.366 97.8389 256.819 99.0283 333C127.572 157.289 196.553 104.26 227.476 99.7085C140.893 149.097 121.229 253.257 122.22 299.164C122.815 293.623 133.638 277.556 172.172 257.611C210.706 237.665 225.097 213.287 227.476 203.591C197.029 216.889 183.471 216.651 180.497 214.87C256.02 192.313 275.644 125.234 271.481 131.764C268.151 136.988 244.325 139.481 232.828 140.074C286.943 124.047 290.709 81.7021 286.943 54Z" fill="white"/>
</svg>
